<svg xmlns="http://www.w3.org/2000/svg" xmlns:xlink="http://www.w3.org/1999/xlink" width="40" zoomAndPan="magnify" viewBox="0 0 30 30.000001" height="40" preserveAspectRatio="xMidYMid meet" version="1.2"><defs><clipPath id="228bceb104"><path d="M 3.386719 2.902344 L 25.886719 2.902344 L 25.886719 25.402344 L 3.386719 25.402344 Z M 3.386719 2.902344 "/></clipPath><clipPath id="111b099c9f"><path d="M 14.636719 2.902344 C 8.425781 2.902344 3.386719 7.941406 3.386719 14.152344 C 3.386719 20.367188 8.425781 25.402344 14.636719 25.402344 C 20.851562 25.402344 25.886719 20.367188 25.886719 14.152344 C 25.886719 7.941406 20.851562 2.902344 14.636719 2.902344 Z M 14.636719 2.902344 "/></clipPath><clipPath id="061ab57551"><path d="M 3.386719 2.902344 L 25.886719 2.902344 L 25.886719 25.402344 L 3.386719 25.402344 Z M 3.386719 2.902344 "/></clipPath></defs><g id="ae57b8b4ff"><g clip-rule="nonzero" clip-path="url(#228bceb104)"><g clip-rule="nonzero" clip-path="url(#111b099c9f)"><path style=" stroke:none;fill-rule:nonzero;fill:#ffffff;fill-opacity:1;" d="M 3.386719 2.902344 L 25.886719 2.902344 L 25.886719 25.402344 L 3.386719 25.402344 Z M 3.386719 2.902344 "/></g></g><path style=" stroke:none;fill-rule:nonzero;fill:#000099;fill-opacity:1;" d="M 20.925781 10.015625 L 20.925781 10.929688 L 8.347656 10.929688 L 8.347656 10.015625 C 8.347656 9.867188 8.375 9.726562 8.433594 9.589844 C 8.488281 9.453125 8.566406 9.335938 8.671875 9.230469 C 8.777344 9.125 8.894531 9.046875 9.03125 8.988281 C 9.167969 8.933594 9.308594 8.90625 9.453125 8.90625 L 10.699219 8.90625 L 10.699219 9.574219 C 10.699219 9.679688 10.734375 9.765625 10.808594 9.835938 C 10.878906 9.910156 10.96875 9.945312 11.070312 9.945312 C 11.171875 9.945312 11.257812 9.910156 11.328125 9.835938 C 11.402344 9.765625 11.4375 9.679688 11.4375 9.574219 L 11.4375 8.90625 L 14.269531 8.90625 L 14.269531 9.6875 C 14.269531 9.789062 14.304688 9.878906 14.375 9.949219 C 14.449219 10.023438 14.535156 10.058594 14.636719 10.058594 C 14.738281 10.058594 14.824219 10.023438 14.898438 9.949219 C 14.96875 9.878906 15.007812 9.789062 15.007812 9.6875 L 15.007812 8.90625 L 17.835938 8.90625 L 17.835938 9.574219 C 17.835938 9.675781 17.875 9.761719 17.945312 9.832031 C 18.019531 9.902344 18.105469 9.941406 18.207031 9.941406 C 18.304688 9.941406 18.394531 9.902344 18.464844 9.832031 C 18.535156 9.761719 18.574219 9.675781 18.574219 9.574219 L 18.574219 8.90625 L 19.820312 8.90625 C 19.964844 8.90625 20.109375 8.933594 20.242188 8.988281 C 20.378906 9.046875 20.5 9.125 20.601562 9.230469 C 20.707031 9.335938 20.785156 9.453125 20.84375 9.589844 C 20.898438 9.726562 20.925781 9.867188 20.925781 10.015625 Z M 20.925781 10.015625 "/><path style=" stroke:none;fill-rule:nonzero;fill:#000099;fill-opacity:1;" d="M 8.347656 11.671875 L 20.925781 11.671875 L 20.925781 19.335938 C 20.925781 19.480469 20.898438 19.625 20.84375 19.757812 C 20.785156 19.894531 20.707031 20.015625 20.601562 20.121094 C 20.5 20.222656 20.378906 20.304688 20.242188 20.359375 C 20.109375 20.417969 19.964844 20.445312 19.820312 20.445312 L 9.453125 20.445312 C 9.308594 20.445312 9.167969 20.417969 9.03125 20.359375 C 8.894531 20.304688 8.777344 20.222656 8.671875 20.121094 C 8.566406 20.015625 8.488281 19.894531 8.433594 19.757812 C 8.375 19.625 8.347656 19.480469 8.347656 19.335938 Z M 8.347656 11.671875 "/><g clip-rule="nonzero" clip-path="url(#061ab57551)"><path style=" stroke:none;fill-rule:nonzero;fill:#000099;fill-opacity:1;" d="M 14.636719 2.902344 C 13.898438 2.902344 13.167969 2.976562 12.441406 3.121094 C 11.71875 3.261719 11.015625 3.476562 10.332031 3.757812 C 9.648438 4.042969 9 4.390625 8.386719 4.800781 C 7.773438 5.210938 7.203125 5.675781 6.683594 6.199219 C 6.160156 6.71875 5.695312 7.289062 5.28125 7.902344 C 4.871094 8.515625 4.527344 9.164062 4.242188 9.847656 C 3.960938 10.53125 3.746094 11.234375 3.601562 11.957031 C 3.460938 12.683594 3.386719 13.414062 3.386719 14.152344 C 3.386719 14.890625 3.460938 15.625 3.601562 16.347656 C 3.746094 17.074219 3.960938 17.777344 4.242188 18.457031 C 4.527344 19.140625 4.871094 19.789062 5.28125 20.402344 C 5.695312 21.019531 6.160156 21.585938 6.683594 22.109375 C 7.203125 22.628906 7.773438 23.097656 8.386719 23.507812 C 9 23.917969 9.648438 24.265625 10.332031 24.546875 C 11.015625 24.828125 11.71875 25.042969 12.441406 25.1875 C 13.167969 25.332031 13.898438 25.402344 14.636719 25.402344 C 15.375 25.402344 16.105469 25.332031 16.832031 25.1875 C 17.554688 25.042969 18.261719 24.828125 18.941406 24.546875 C 19.625 24.265625 20.273438 23.917969 20.886719 23.507812 C 21.5 23.097656 22.070312 22.628906 22.59375 22.109375 C 23.113281 21.585938 23.582031 21.019531 23.992188 20.402344 C 24.402344 19.789062 24.75 19.140625 25.03125 18.457031 C 25.3125 17.777344 25.527344 17.074219 25.671875 16.347656 C 25.816406 15.625 25.886719 14.890625 25.886719 14.152344 C 25.886719 13.414062 25.816406 12.683594 25.671875 11.957031 C 25.527344 11.234375 25.3125 10.53125 25.03125 9.847656 C 24.746094 9.164062 24.402344 8.515625 23.992188 7.902344 C 23.582031 7.289062 23.113281 6.722656 22.589844 6.199219 C 22.070312 5.675781 21.5 5.210938 20.886719 4.800781 C 20.273438 4.390625 19.625 4.042969 18.941406 3.761719 C 18.257812 3.476562 17.554688 3.265625 16.832031 3.121094 C 16.105469 2.976562 15.375 2.902344 14.636719 2.902344 Z M 21.667969 19.335938 C 21.667969 19.582031 21.621094 19.816406 21.527344 20.042969 C 21.433594 20.269531 21.300781 20.46875 21.125 20.640625 C 20.953125 20.816406 20.753906 20.949219 20.527344 21.042969 C 20.300781 21.136719 20.0625 21.183594 19.820312 21.183594 L 9.453125 21.183594 C 9.210938 21.183594 8.972656 21.136719 8.746094 21.042969 C 8.519531 20.949219 8.320312 20.816406 8.148438 20.640625 C 7.976562 20.46875 7.839844 20.269531 7.746094 20.042969 C 7.652344 19.816406 7.605469 19.582031 7.605469 19.335938 L 7.605469 10.015625 C 7.605469 9.769531 7.652344 9.535156 7.746094 9.308594 C 7.839844 9.082031 7.976562 8.882812 8.148438 8.707031 C 8.320312 8.535156 8.519531 8.402344 8.746094 8.308594 C 8.972656 8.214844 9.210938 8.167969 9.453125 8.167969 L 10.699219 8.167969 L 10.699219 7.496094 C 10.699219 7.394531 10.738281 7.308594 10.808594 7.238281 C 10.882812 7.164062 10.96875 7.128906 11.070312 7.128906 C 11.167969 7.128906 11.257812 7.164062 11.328125 7.238281 C 11.398438 7.308594 11.4375 7.394531 11.4375 7.496094 L 11.4375 8.167969 L 14.269531 8.167969 L 14.269531 7.605469 C 14.269531 7.507812 14.304688 7.417969 14.378906 7.347656 C 14.449219 7.277344 14.535156 7.242188 14.636719 7.242188 C 14.738281 7.242188 14.824219 7.277344 14.898438 7.347656 C 14.96875 7.417969 15.003906 7.507812 15.007812 7.605469 L 15.007812 8.167969 L 17.835938 8.167969 L 17.835938 7.496094 C 17.835938 7.394531 17.871094 7.304688 17.945312 7.234375 C 18.015625 7.160156 18.105469 7.125 18.207031 7.125 C 18.308594 7.125 18.394531 7.160156 18.464844 7.234375 C 18.539062 7.304688 18.574219 7.394531 18.574219 7.496094 L 18.574219 8.167969 L 19.820312 8.167969 C 20.0625 8.167969 20.300781 8.214844 20.527344 8.308594 C 20.753906 8.402344 20.953125 8.535156 21.125 8.707031 C 21.300781 8.882812 21.433594 9.082031 21.527344 9.308594 C 21.621094 9.535156 21.667969 9.769531 21.667969 10.015625 Z M 21.667969 19.335938 "/></g></g></svg>