<svg xmlns="http://www.w3.org/2000/svg" xmlns:xlink="http://www.w3.org/1999/xlink" width="95" zoomAndPan="magnify" viewBox="0 0 71.25 71.25" height="95" preserveAspectRatio="xMidYMid meet" version="1.2"><defs><clipPath id="4d2042932b"><path d="M 6.855469 21.335938 L 28.789062 21.335938 L 28.789062 56.355469 L 6.855469 56.355469 Z M 6.855469 21.335938 "/></clipPath><clipPath id="b2a468d8f8"><path d="M 0 12.289062 L 30 12.289062 L 30 34 L 0 34 Z M 0 12.289062 "/></clipPath></defs><g id="7504081049"><path style=" stroke:none;fill-rule:nonzero;fill:#1893f8;fill-opacity:1;" d="M 42.460938 20.082031 L 43.527344 22.59375 L 45.921875 22.59375 L 44.191406 24.285156 L 44.601562 26.667969 L 42.460938 25.539062 L 40.320312 26.667969 L 40.730469 24.285156 L 39 22.59375 L 41.390625 22.59375 L 42.460938 20.082031 "/><path style=" stroke:none;fill-rule:nonzero;fill:#000099;fill-opacity:1;" d="M 34.730469 13.269531 L 35.449219 14.964844 L 37.0625 14.964844 L 35.894531 16.101562 L 36.171875 17.707031 L 34.730469 16.949219 L 33.289062 17.707031 L 33.5625 16.101562 L 32.398438 14.964844 L 34.007812 14.964844 L 34.730469 13.269531 "/><path style=" stroke:none;fill-rule:nonzero;fill:#1893f8;fill-opacity:1;" d="M 29.851562 25.992188 L 30.328125 27.105469 L 31.382812 27.105469 L 30.617188 27.851562 L 30.800781 28.90625 L 29.851562 28.40625 L 28.90625 28.90625 L 29.089844 27.851562 L 28.324219 27.105469 L 29.382812 27.105469 L 29.851562 25.992188 "/><g clip-rule="nonzero" clip-path="url(#4d2042932b)"><path style=" stroke:none;fill-rule:evenodd;fill:#1893f8;fill-opacity:1;" d="M 9.648438 36.664062 C 8.117188 45.648438 13.820312 54.203125 22.53125 56.355469 C 22.105469 56.3125 21.679688 56.257812 21.25 56.183594 C 11.835938 54.582031 5.503906 45.644531 7.105469 36.230469 C 8.710938 26.816406 17.644531 20.480469 27.058594 22.082031 C 27.484375 22.160156 27.910156 22.246094 28.324219 22.347656 C 19.390625 21.496094 11.179688 27.675781 9.648438 36.664062 "/></g><path style=" stroke:none;fill-rule:evenodd;fill:#000099;fill-opacity:1;" d="M 35.792969 50 C 21.554688 58.105469 7.503906 38.285156 19.867188 27.535156 C 19.46875 27.761719 19.078125 28.007812 18.699219 28.277344 C 12.464844 32.699219 10.992188 41.335938 15.410156 47.570312 C 19.832031 53.804688 28.46875 55.273438 34.703125 50.855469 C 35.082031 50.585938 35.445312 50.296875 35.792969 50 "/><g clip-rule="nonzero" clip-path="url(#b2a468d8f8)"><path style=" stroke:none;fill-rule:evenodd;fill:#000099;fill-opacity:1;" d="M 25.308594 17.367188 L 26.167969 19.445312 C 25.488281 19.371094 24.8125 19.335938 24.136719 19.335938 C 19.519531 19.335938 15.015625 20.976562 11.453125 23.957031 C 10.269531 24.941406 9.21875 26.058594 8.304688 27.277344 L 7.40625 25.101562 L 7.292969 24.832031 L 6.421875 24.769531 L 3.578125 24.566406 L 1.550781 24.421875 L 1.46875 24.414062 L 1.46875 30.445312 C 1.679688 30.570312 1.820312 30.792969 1.820312 31.050781 C 1.820312 31.269531 1.71875 31.46875 1.558594 31.59375 C 1.53125 31.617188 1.503906 31.640625 1.46875 31.65625 L 1.46875 32.316406 L 2.207031 33.789062 L 0 33.789062 L 0.722656 32.34375 L 0.722656 31.695312 C 0.515625 31.574219 0.371094 31.351562 0.371094 31.089844 C 0.371094 30.847656 0.496094 30.632812 0.683594 30.507812 C 0.699219 30.496094 0.710938 30.484375 0.722656 30.476562 C 0.738281 30.464844 0.753906 30.457031 0.769531 30.445312 L 0.769531 24.367188 L 12.882812 12.847656 L 26.507812 12.507812 L 29.589844 12.429688 L 25.308594 17.367188 "/></g><g style="fill:#000099;fill-opacity:1;"><g transform="translate(25.347692, 43.766598)"><path style="stroke:none" d="M 0.984375 -13.484375 L 5.90625 -13.484375 C 7.269531 -13.484375 8.378906 -13.128906 9.234375 -12.421875 C 10.085938 -11.710938 10.515625 -10.679688 10.515625 -9.328125 C 10.515625 -7.984375 10.082031 -6.925781 9.21875 -6.15625 C 8.351562 -5.382812 7.25 -5 5.90625 -5 L 4.046875 -5 L 4.046875 0 L 0.984375 0 Z M 4.046875 -7.453125 L 4.921875 -7.453125 C 5.609375 -7.453125 6.171875 -7.585938 6.609375 -7.859375 C 7.046875 -8.140625 7.265625 -8.597656 7.265625 -9.234375 C 7.265625 -9.878906 7.046875 -10.335938 6.609375 -10.609375 C 6.171875 -10.890625 5.609375 -11.03125 4.921875 -11.03125 L 4.046875 -11.03125 Z M 4.046875 -7.453125 "/></g></g><g style="fill:#000099;fill-opacity:1;"><g transform="translate(35.00986, 43.766598)"><path style="stroke:none" d="M 1.765625 -0.984375 C 0.835938 -1.816406 0.375 -2.878906 0.375 -4.171875 C 0.375 -5.472656 0.859375 -6.539062 1.828125 -7.375 C 2.796875 -8.207031 3.992188 -8.625 5.421875 -8.625 C 6.828125 -8.625 8.007812 -8.203125 8.96875 -7.359375 C 9.9375 -6.523438 10.421875 -5.460938 10.421875 -4.171875 C 10.421875 -2.890625 9.945312 -1.832031 9 -1 C 8.0625 -0.164062 6.867188 0.25 5.421875 0.25 C 3.921875 0.25 2.703125 -0.160156 1.765625 -0.984375 Z M 4.015625 -5.59375 C 3.640625 -5.226562 3.453125 -4.753906 3.453125 -4.171875 C 3.453125 -3.597656 3.628906 -3.128906 3.984375 -2.765625 C 4.347656 -2.398438 4.820312 -2.21875 5.40625 -2.21875 C 5.976562 -2.21875 6.445312 -2.398438 6.8125 -2.765625 C 7.175781 -3.140625 7.359375 -3.613281 7.359375 -4.1875 C 7.359375 -4.757812 7.171875 -5.226562 6.796875 -5.59375 C 6.421875 -5.96875 5.957031 -6.15625 5.40625 -6.15625 C 4.851562 -6.15625 4.390625 -5.96875 4.015625 -5.59375 Z M 4.015625 -5.59375 "/></g></g><g style="fill:#000099;fill-opacity:1;"><g transform="translate(44.590283, 43.766598)"><path style="stroke:none" d="M 0.984375 0 L 0.984375 -8.390625 L 3.875 -8.390625 L 3.875 -7.5 L 3.90625 -7.5 C 4.65625 -8.25 5.457031 -8.625 6.3125 -8.625 C 6.914062 -8.625 7.484375 -8.5 8.015625 -8.25 C 8.554688 -8 8.960938 -7.613281 9.234375 -7.09375 C 10.085938 -8.113281 11.015625 -8.625 12.015625 -8.625 C 12.910156 -8.625 13.675781 -8.375 14.3125 -7.875 C 14.957031 -7.375 15.28125 -6.59375 15.28125 -5.53125 L 15.28125 0 L 12.390625 0 L 12.390625 -4.734375 C 12.390625 -5.179688 12.265625 -5.554688 12.015625 -5.859375 C 11.773438 -6.160156 11.410156 -6.3125 10.921875 -6.3125 C 10.492188 -6.3125 10.164062 -6.179688 9.9375 -5.921875 C 9.71875 -5.671875 9.597656 -5.363281 9.578125 -5 L 9.578125 0 L 6.6875 0 L 6.6875 -4.734375 C 6.6875 -5.179688 6.5625 -5.554688 6.3125 -5.859375 C 6.070312 -6.160156 5.707031 -6.3125 5.21875 -6.3125 C 4.769531 -6.3125 4.429688 -6.171875 4.203125 -5.890625 C 3.984375 -5.609375 3.875 -5.28125 3.875 -4.90625 L 3.875 0 Z M 0.984375 0 "/></g></g><g style="fill:#000099;fill-opacity:1;"><g transform="translate(59.467767, 43.766598)"><path style="stroke:none" d="M 1.765625 -0.984375 C 0.835938 -1.816406 0.375 -2.878906 0.375 -4.171875 C 0.375 -5.472656 0.859375 -6.539062 1.828125 -7.375 C 2.796875 -8.207031 3.992188 -8.625 5.421875 -8.625 C 6.828125 -8.625 8.007812 -8.203125 8.96875 -7.359375 C 9.9375 -6.523438 10.421875 -5.460938 10.421875 -4.171875 C 10.421875 -2.890625 9.945312 -1.832031 9 -1 C 8.0625 -0.164062 6.867188 0.25 5.421875 0.25 C 3.921875 0.25 2.703125 -0.160156 1.765625 -0.984375 Z M 4.015625 -5.59375 C 3.640625 -5.226562 3.453125 -4.753906 3.453125 -4.171875 C 3.453125 -3.597656 3.628906 -3.128906 3.984375 -2.765625 C 4.347656 -2.398438 4.820312 -2.21875 5.40625 -2.21875 C 5.976562 -2.21875 6.445312 -2.398438 6.8125 -2.765625 C 7.175781 -3.140625 7.359375 -3.613281 7.359375 -4.1875 C 7.359375 -4.757812 7.171875 -5.226562 6.796875 -5.59375 C 6.421875 -5.96875 5.957031 -6.15625 5.40625 -6.15625 C 4.851562 -6.15625 4.390625 -5.96875 4.015625 -5.59375 Z M 4.015625 -5.59375 "/></g></g><g style="fill:#1893f8;fill-opacity:1;"><g transform="translate(41.697724, 48.047014)"><path style="stroke:none" d="M 1.328125 -1.734375 L 1.328125 -1.4375 L 0.5625 -1.4375 L 0.5625 -0.984375 L 1.25 -0.984375 L 1.25 -0.703125 L 0.5625 -0.703125 L 0.5625 0 L 0.21875 0 L 0.21875 -1.734375 Z M 1.328125 -1.734375 "/></g></g><g style="fill:#1893f8;fill-opacity:1;"><g transform="translate(44.077753, 48.047014)"><path style="stroke:none" d="M 0.9375 0.03125 C 0.78125 0.03125 0.640625 0 0.515625 -0.0625 C 0.398438 -0.132812 0.304688 -0.234375 0.234375 -0.359375 C 0.171875 -0.492188 0.140625 -0.660156 0.140625 -0.859375 C 0.140625 -1.054688 0.171875 -1.222656 0.234375 -1.359375 C 0.304688 -1.492188 0.398438 -1.59375 0.515625 -1.65625 C 0.640625 -1.71875 0.78125 -1.75 0.9375 -1.75 C 1.101562 -1.75 1.242188 -1.71875 1.359375 -1.65625 C 1.484375 -1.59375 1.578125 -1.492188 1.640625 -1.359375 C 1.710938 -1.222656 1.75 -1.054688 1.75 -0.859375 C 1.75 -0.660156 1.710938 -0.492188 1.640625 -0.359375 C 1.578125 -0.234375 1.484375 -0.132812 1.359375 -0.0625 C 1.242188 0 1.101562 0.03125 0.9375 0.03125 Z M 0.9375 -0.265625 C 1.082031 -0.265625 1.191406 -0.3125 1.265625 -0.40625 C 1.347656 -0.5 1.390625 -0.648438 1.390625 -0.859375 C 1.390625 -1.066406 1.347656 -1.21875 1.265625 -1.3125 C 1.191406 -1.40625 1.082031 -1.453125 0.9375 -1.453125 C 0.789062 -1.453125 0.675781 -1.40625 0.59375 -1.3125 C 0.519531 -1.21875 0.484375 -1.066406 0.484375 -0.859375 C 0.484375 -0.648438 0.519531 -0.5 0.59375 -0.40625 C 0.675781 -0.3125 0.789062 -0.265625 0.9375 -0.265625 Z M 0.9375 -0.265625 "/></g></g><g style="fill:#1893f8;fill-opacity:1;"><g transform="translate(46.943885, 48.047014)"><path style="stroke:none" d="M 0.9375 0.03125 C 0.78125 0.03125 0.640625 0 0.515625 -0.0625 C 0.398438 -0.132812 0.304688 -0.238281 0.234375 -0.375 C 0.171875 -0.507812 0.140625 -0.671875 0.140625 -0.859375 C 0.140625 -1.054688 0.171875 -1.222656 0.234375 -1.359375 C 0.304688 -1.492188 0.398438 -1.59375 0.515625 -1.65625 C 0.640625 -1.71875 0.78125 -1.75 0.9375 -1.75 C 1.101562 -1.75 1.242188 -1.71875 1.359375 -1.65625 C 1.484375 -1.59375 1.570312 -1.492188 1.625 -1.359375 L 1.375 -1.203125 L 1.34375 -1.203125 C 1.300781 -1.296875 1.25 -1.359375 1.1875 -1.390625 C 1.125 -1.429688 1.039062 -1.453125 0.9375 -1.453125 C 0.800781 -1.453125 0.691406 -1.40625 0.609375 -1.3125 C 0.523438 -1.21875 0.484375 -1.066406 0.484375 -0.859375 C 0.484375 -0.660156 0.523438 -0.507812 0.609375 -0.40625 C 0.691406 -0.3125 0.800781 -0.265625 0.9375 -0.265625 C 1.164062 -0.265625 1.304688 -0.375 1.359375 -0.59375 L 1.390625 -0.59375 L 1.640625 -0.46875 C 1.585938 -0.300781 1.503906 -0.175781 1.390625 -0.09375 C 1.273438 -0.0078125 1.125 0.03125 0.9375 0.03125 Z M 0.9375 0.03125 "/></g></g><g style="fill:#1893f8;fill-opacity:1;"><g transform="translate(49.621963, 48.047014)"><path style="stroke:none" d="M 0.921875 0.03125 C 0.679688 0.03125 0.503906 -0.0234375 0.390625 -0.140625 C 0.273438 -0.253906 0.21875 -0.421875 0.21875 -0.640625 L 0.21875 -1.734375 L 0.546875 -1.734375 L 0.546875 -0.65625 C 0.546875 -0.53125 0.578125 -0.429688 0.640625 -0.359375 C 0.703125 -0.296875 0.796875 -0.265625 0.921875 -0.265625 C 1.160156 -0.265625 1.28125 -0.394531 1.28125 -0.65625 L 1.28125 -1.734375 L 1.625 -1.734375 L 1.625 -0.640625 C 1.625 -0.421875 1.566406 -0.253906 1.453125 -0.140625 C 1.335938 -0.0234375 1.160156 0.03125 0.921875 0.03125 Z M 0.921875 0.03125 "/></g></g><g style="fill:#1893f8;fill-opacity:1;"><g transform="translate(52.437236, 48.047014)"><path style="stroke:none" d="M 0.765625 0.03125 C 0.648438 0.03125 0.546875 0.015625 0.453125 -0.015625 C 0.359375 -0.046875 0.28125 -0.0820312 0.21875 -0.125 C 0.15625 -0.175781 0.101562 -0.234375 0.0625 -0.296875 L 0.25 -0.53125 L 0.28125 -0.53125 C 0.332031 -0.445312 0.398438 -0.378906 0.484375 -0.328125 C 0.566406 -0.285156 0.660156 -0.265625 0.765625 -0.265625 C 0.859375 -0.265625 0.925781 -0.285156 0.96875 -0.328125 C 1.019531 -0.367188 1.046875 -0.421875 1.046875 -0.484375 C 1.046875 -0.523438 1.035156 -0.554688 1.015625 -0.578125 C 1.003906 -0.609375 0.976562 -0.632812 0.9375 -0.65625 C 0.90625 -0.675781 0.863281 -0.695312 0.8125 -0.71875 L 0.578125 -0.765625 C 0.421875 -0.796875 0.304688 -0.851562 0.234375 -0.9375 C 0.160156 -1.019531 0.125 -1.128906 0.125 -1.265625 C 0.125 -1.359375 0.144531 -1.441406 0.1875 -1.515625 C 0.238281 -1.585938 0.3125 -1.644531 0.40625 -1.6875 C 0.5 -1.726562 0.613281 -1.75 0.75 -1.75 C 0.875 -1.75 0.984375 -1.734375 1.078125 -1.703125 C 1.179688 -1.671875 1.265625 -1.617188 1.328125 -1.546875 L 1.15625 -1.3125 L 1.125 -1.3125 C 1.082031 -1.363281 1.023438 -1.398438 0.953125 -1.421875 C 0.890625 -1.453125 0.820312 -1.46875 0.75 -1.46875 C 0.65625 -1.46875 0.582031 -1.445312 0.53125 -1.40625 C 0.476562 -1.375 0.453125 -1.332031 0.453125 -1.28125 C 0.453125 -1.21875 0.46875 -1.171875 0.5 -1.140625 C 0.539062 -1.109375 0.601562 -1.082031 0.6875 -1.0625 L 0.90625 -1.015625 C 1.082031 -0.984375 1.207031 -0.925781 1.28125 -0.84375 C 1.351562 -0.757812 1.390625 -0.648438 1.390625 -0.515625 C 1.390625 -0.398438 1.363281 -0.300781 1.3125 -0.21875 C 1.269531 -0.144531 1.203125 -0.0820312 1.109375 -0.03125 C 1.015625 0.0078125 0.898438 0.03125 0.765625 0.03125 Z M 0.765625 0.03125 "/></g></g></g></svg>