<svg xmlns="http://www.w3.org/2000/svg" xmlns:xlink="http://www.w3.org/1999/xlink" width="40" zoomAndPan="magnify" viewBox="0 0 30 30.000001" height="40" preserveAspectRatio="xMidYMid meet" version="1.2"><defs><clipPath id="06209480f1"><path d="M 3.386719 2.902344 L 26.613281 2.902344 L 26.613281 26.128906 L 3.386719 26.128906 Z M 3.386719 2.902344 "/></clipPath></defs><g id="4eb3c813f2"><g clip-rule="nonzero" clip-path="url(#06209480f1)"><path style=" stroke:none;fill-rule:nonzero;fill:#000099;fill-opacity:1;" d="M 26.613281 14.515625 C 26.613281 15.277344 26.539062 16.035156 26.390625 16.78125 C 26.242188 17.53125 26.019531 18.253906 25.730469 18.960938 C 25.4375 19.664062 25.078125 20.332031 24.65625 20.96875 C 24.230469 21.601562 23.75 22.1875 23.210938 22.726562 C 22.671875 23.265625 22.085938 23.75 21.453125 24.171875 C 20.816406 24.59375 20.148438 24.953125 19.445312 25.246094 C 18.738281 25.535156 18.011719 25.757812 17.265625 25.90625 C 16.519531 26.054688 15.761719 26.128906 15 26.128906 C 14.238281 26.128906 13.480469 26.054688 12.734375 25.90625 C 11.988281 25.757812 11.261719 25.535156 10.554688 25.246094 C 9.851562 24.953125 9.183594 24.59375 8.546875 24.171875 C 7.914062 23.75 7.328125 23.265625 6.789062 22.726562 C 6.25 22.1875 5.769531 21.601562 5.34375 20.96875 C 4.921875 20.332031 4.5625 19.664062 4.269531 18.960938 C 3.980469 18.253906 3.757812 17.53125 3.609375 16.78125 C 3.460938 16.035156 3.386719 15.277344 3.386719 14.515625 C 3.386719 13.753906 3.460938 13 3.609375 12.25 C 3.757812 11.503906 3.980469 10.777344 4.269531 10.070312 C 4.5625 9.367188 4.921875 8.699219 5.34375 8.0625 C 5.769531 7.429688 6.25 6.84375 6.789062 6.304688 C 7.328125 5.765625 7.914062 5.285156 8.546875 4.859375 C 9.183594 4.4375 9.851562 4.078125 10.554688 3.789062 C 11.261719 3.496094 11.988281 3.273438 12.734375 3.125 C 13.480469 2.976562 14.238281 2.902344 15 2.902344 C 15.761719 2.902344 16.519531 2.976562 17.265625 3.125 C 18.011719 3.273438 18.738281 3.496094 19.445312 3.789062 C 20.148438 4.078125 20.816406 4.4375 21.453125 4.859375 C 22.085938 5.285156 22.671875 5.765625 23.210938 6.304688 C 23.75 6.84375 24.230469 7.429688 24.65625 8.0625 C 25.078125 8.699219 25.4375 9.367188 25.730469 10.070312 C 26.019531 10.777344 26.242188 11.503906 26.390625 12.25 C 26.539062 13 26.613281 13.753906 26.613281 14.515625 Z M 26.613281 14.515625 "/></g><path style=" stroke:none;fill-rule:nonzero;fill:#ffffff;fill-opacity:1;" d="M 19.4375 11.128906 L 18.679688 11.128906 L 18.679688 10.367188 C 18.679688 10.238281 18.578125 10.136719 18.445312 10.136719 C 18.316406 10.136719 18.214844 10.238281 18.214844 10.367188 L 18.214844 11.128906 L 17.460938 11.128906 C 17.332031 11.128906 17.230469 11.230469 17.230469 11.363281 C 17.230469 11.492188 17.332031 11.59375 17.460938 11.59375 L 18.21875 11.59375 L 18.21875 12.359375 C 18.21875 12.492188 18.320312 12.59375 18.453125 12.59375 C 18.582031 12.59375 18.683594 12.492188 18.683594 12.359375 L 18.683594 11.59375 L 19.441406 11.59375 C 19.570312 11.59375 19.671875 11.492188 19.671875 11.363281 C 19.667969 11.230469 19.566406 11.128906 19.4375 11.128906 Z M 19.4375 11.128906 "/><path style=" stroke:none;fill-rule:nonzero;fill:#ffffff;fill-opacity:1;" d="M 11.027344 16.03125 L 14.058594 16.03125 C 14.1875 16.03125 14.289062 15.929688 14.289062 15.796875 C 14.289062 15.667969 14.1875 15.566406 14.058594 15.566406 L 11.027344 15.566406 C 10.898438 15.566406 10.796875 15.667969 10.796875 15.796875 C 10.796875 15.929688 10.902344 16.03125 11.027344 16.03125 Z M 11.027344 16.03125 "/><path style=" stroke:none;fill-rule:nonzero;fill:#ffffff;fill-opacity:1;" d="M 15.65625 17.164062 L 11.03125 17.164062 C 10.902344 17.164062 10.800781 17.265625 10.800781 17.394531 C 10.800781 17.527344 10.902344 17.628906 11.03125 17.628906 L 15.65625 17.628906 C 15.785156 17.628906 15.886719 17.527344 15.886719 17.394531 C 15.886719 17.265625 15.78125 17.164062 15.65625 17.164062 Z M 15.65625 17.164062 "/><path style=" stroke:none;fill-rule:nonzero;fill:#ffffff;fill-opacity:1;" d="M 18.453125 8.105469 C 16.835938 8.105469 15.488281 9.300781 15.238281 10.835938 L 8.519531 10.835938 C 8.460938 10.835938 8.398438 10.859375 8.355469 10.902344 C 8.316406 10.945312 8.292969 11.003906 8.292969 11.066406 L 8.292969 20.707031 C 8.292969 20.769531 8.316406 20.824219 8.355469 20.871094 C 8.398438 20.914062 8.460938 20.9375 8.519531 20.9375 L 18.167969 20.9375 C 18.226562 20.9375 18.289062 20.914062 18.332031 20.871094 C 18.371094 20.828125 18.394531 20.769531 18.394531 20.707031 L 18.394531 14.617188 C 18.421875 14.617188 18.433594 14.617188 18.453125 14.617188 C 20.25 14.617188 21.710938 13.160156 21.710938 11.363281 C 21.703125 9.5625 20.25 8.105469 18.453125 8.105469 Z M 12.0625 11.300781 L 14.617188 11.300781 L 14.617188 13.128906 L 13.414062 12.703125 C 13.371094 12.6875 13.3125 12.6875 13.265625 12.703125 L 12.0625 13.128906 Z M 17.925781 20.472656 L 8.757812 20.472656 L 8.757812 11.300781 L 11.601562 11.300781 L 11.601562 13.457031 C 11.601562 13.53125 11.632812 13.601562 11.691406 13.648438 C 11.753906 13.6875 11.832031 13.703125 11.902344 13.675781 L 13.335938 13.167969 L 14.773438 13.675781 C 14.796875 13.683594 14.824219 13.6875 14.847656 13.6875 C 14.894531 13.6875 14.941406 13.675781 14.976562 13.648438 C 15.039062 13.605469 15.074219 13.53125 15.074219 13.457031 L 15.074219 11.300781 L 15.179688 11.300781 C 15.179688 11.328125 15.175781 11.34375 15.175781 11.363281 C 15.175781 12.984375 16.375 14.324219 17.917969 14.578125 Z M 18.453125 14.152344 C 16.910156 14.152344 15.660156 12.902344 15.660156 11.363281 C 15.660156 9.820312 16.910156 8.570312 18.453125 8.570312 C 19.992188 8.570312 21.242188 9.820312 21.242188 11.363281 C 21.242188 12.902344 19.992188 14.152344 18.453125 14.152344 Z M 18.453125 14.152344 "/></g></svg>