<svg xmlns="http://www.w3.org/2000/svg" xmlns:xlink="http://www.w3.org/1999/xlink" width="40" zoomAndPan="magnify" viewBox="0 0 30 30.000001" height="40" preserveAspectRatio="xMidYMid meet" version="1.2"><defs><clipPath id="dcdee27735"><path d="M 3.386719 2.902344 L 26.613281 2.902344 L 26.613281 26.128906 L 3.386719 26.128906 Z M 3.386719 2.902344 "/></clipPath><clipPath id="7714f50440"><path d="M 15 2.902344 C 8.585938 2.902344 3.386719 8.101562 3.386719 14.515625 C 3.386719 20.929688 8.585938 26.128906 15 26.128906 C 21.414062 26.128906 26.613281 20.929688 26.613281 14.515625 C 26.613281 8.101562 21.414062 2.902344 15 2.902344 Z M 15 2.902344 "/></clipPath><clipPath id="356e38a949"><path d="M 3.386719 2.902344 L 26.613281 2.902344 L 26.613281 26.128906 L 3.386719 26.128906 Z M 3.386719 2.902344 "/></clipPath></defs><g id="dd3574f9d3"><g clip-rule="nonzero" clip-path="url(#dcdee27735)"><g clip-rule="nonzero" clip-path="url(#7714f50440)"><path style=" stroke:none;fill-rule:nonzero;fill:#ffffff;fill-opacity:1;" d="M 3.386719 2.902344 L 26.613281 2.902344 L 26.613281 26.128906 L 3.386719 26.128906 Z M 3.386719 2.902344 "/></g></g><g clip-rule="nonzero" clip-path="url(#356e38a949)"><path style=" stroke:none;fill-rule:nonzero;fill:#000099;fill-opacity:1;" d="M 15 2.902344 C 8.582031 2.902344 3.386719 8.097656 3.386719 14.515625 C 3.386719 20.933594 8.582031 26.128906 15 26.128906 C 21.417969 26.128906 26.613281 20.933594 26.613281 14.515625 C 26.613281 8.097656 21.417969 2.902344 15 2.902344 Z M 18.757812 18.613281 L 15.683594 18.613281 C 15.304688 18.613281 15 18.308594 15 17.933594 C 15 17.554688 15.304688 17.25 15.683594 17.25 L 18.757812 17.25 C 19.699219 17.25 20.464844 16.484375 20.464844 15.539062 C 20.464844 14.597656 19.699219 13.832031 18.757812 13.832031 L 11.183594 13.832031 L 12.066406 14.714844 C 12.335938 14.984375 12.335938 15.414062 12.066406 15.683594 C 11.800781 15.949219 11.367188 15.949219 11.101562 15.683594 L 9.050781 13.632812 C 9.035156 13.617188 9.019531 13.601562 9.007812 13.582031 C 9 13.574219 8.996094 13.566406 8.988281 13.558594 C 8.980469 13.550781 8.972656 13.539062 8.96875 13.527344 C 8.960938 13.519531 8.953125 13.507812 8.949219 13.5 C 8.945312 13.488281 8.9375 13.480469 8.933594 13.472656 C 8.925781 13.460938 8.921875 13.449219 8.917969 13.441406 C 8.914062 13.429688 8.90625 13.421875 8.902344 13.410156 C 8.898438 13.402344 8.894531 13.390625 8.890625 13.378906 C 8.890625 13.371094 8.882812 13.359375 8.882812 13.347656 C 8.878906 13.335938 8.875 13.328125 8.875 13.316406 C 8.871094 13.304688 8.867188 13.292969 8.863281 13.285156 C 8.863281 13.269531 8.859375 13.257812 8.859375 13.246094 C 8.859375 13.238281 8.855469 13.226562 8.855469 13.21875 C 8.851562 13.171875 8.851562 13.128906 8.855469 13.082031 C 8.855469 13.074219 8.859375 13.0625 8.859375 13.054688 C 8.859375 13.042969 8.863281 13.027344 8.863281 13.015625 C 8.867188 13.003906 8.871094 12.996094 8.875 12.984375 C 8.875 12.972656 8.878906 12.960938 8.882812 12.953125 C 8.882812 12.941406 8.890625 12.929688 8.890625 12.917969 C 8.894531 12.910156 8.898438 12.898438 8.902344 12.886719 C 8.90625 12.878906 8.914062 12.867188 8.917969 12.859375 C 8.921875 12.847656 8.925781 12.839844 8.933594 12.828125 C 8.9375 12.820312 8.945312 12.808594 8.949219 12.800781 C 8.953125 12.789062 8.960938 12.78125 8.96875 12.769531 C 8.972656 12.761719 8.980469 12.75 8.988281 12.742188 C 8.996094 12.734375 9 12.726562 9.007812 12.71875 C 9.019531 12.699219 9.035156 12.683594 9.050781 12.667969 L 11.101562 10.617188 C 11.367188 10.351562 11.800781 10.351562 12.066406 10.617188 C 12.335938 10.882812 12.335938 11.316406 12.066406 11.582031 L 11.183594 12.464844 L 18.757812 12.464844 C 20.453125 12.464844 21.832031 13.847656 21.832031 15.539062 C 21.832031 17.234375 20.453125 18.613281 18.757812 18.613281 Z M 18.757812 18.613281 "/></g></g></svg>