<svg xmlns="http://www.w3.org/2000/svg" xmlns:xlink="http://www.w3.org/1999/xlink" width="40" zoomAndPan="magnify" viewBox="0 0 30 30.000001" height="40" preserveAspectRatio="xMidYMid meet" version="1.2"><defs><clipPath id="0533ebff01"><path d="M 3.386719 2.902344 L 26.613281 2.902344 L 26.613281 26.128906 L 3.386719 26.128906 Z M 3.386719 2.902344 "/></clipPath><clipPath id="43d2774a09"><path d="M 15 2.902344 C 8.585938 2.902344 3.386719 8.101562 3.386719 14.515625 C 3.386719 20.929688 8.585938 26.128906 15 26.128906 C 21.414062 26.128906 26.613281 20.929688 26.613281 14.515625 C 26.613281 8.101562 21.414062 2.902344 15 2.902344 Z M 15 2.902344 "/></clipPath><clipPath id="b97826509c"><path d="M 3.386719 2.902344 L 26.613281 2.902344 L 26.613281 26.128906 L 3.386719 26.128906 Z M 3.386719 2.902344 "/></clipPath></defs><g id="0b629c9020"><g clip-rule="nonzero" clip-path="url(#0533ebff01)"><g clip-rule="nonzero" clip-path="url(#43d2774a09)"><path style=" stroke:none;fill-rule:nonzero;fill:#ffffff;fill-opacity:1;" d="M 3.386719 2.902344 L 26.613281 2.902344 L 26.613281 26.128906 L 3.386719 26.128906 Z M 3.386719 2.902344 "/></g></g><path style=" stroke:none;fill-rule:nonzero;fill:#000099;fill-opacity:1;" d="M 15.703125 8.398438 L 21.246094 12.355469 L 20.582031 12.355469 C 20.476562 12.355469 20.386719 12.394531 20.3125 12.46875 C 20.234375 12.542969 20.199219 12.632812 20.195312 12.738281 L 20.195312 19.648438 C 20.195312 19.808594 20.167969 19.964844 20.105469 20.113281 C 20.042969 20.261719 19.957031 20.394531 19.84375 20.507812 C 19.730469 20.621094 19.597656 20.707031 19.449219 20.769531 C 19.300781 20.832031 19.144531 20.863281 18.984375 20.863281 L 17.421875 20.863281 L 17.421875 17.824219 C 17.421875 17.605469 17.378906 17.394531 17.292969 17.191406 C 17.207031 16.988281 17.089844 16.8125 16.933594 16.65625 C 16.777344 16.5 16.597656 16.382812 16.394531 16.296875 C 16.191406 16.214844 15.980469 16.171875 15.761719 16.171875 L 14.234375 16.171875 C 14.015625 16.171875 13.804688 16.214844 13.601562 16.296875 C 13.398438 16.382812 13.21875 16.5 13.066406 16.65625 C 12.910156 16.8125 12.789062 16.992188 12.707031 17.191406 C 12.621094 17.394531 12.578125 17.605469 12.578125 17.824219 L 12.578125 20.863281 L 11.011719 20.863281 C 10.851562 20.863281 10.695312 20.832031 10.546875 20.769531 C 10.398438 20.707031 10.269531 20.621094 10.152344 20.507812 C 10.039062 20.390625 9.953125 20.261719 9.890625 20.113281 C 9.832031 19.964844 9.800781 19.808594 9.800781 19.648438 L 9.800781 12.738281 C 9.800781 12.632812 9.761719 12.542969 9.6875 12.46875 C 9.613281 12.394531 9.523438 12.355469 9.417969 12.355469 L 8.75 12.355469 L 14.296875 8.398438 C 14.507812 8.246094 14.742188 8.171875 15 8.171875 C 15.257812 8.171875 15.492188 8.246094 15.703125 8.398438 Z M 15.703125 8.398438 "/><g clip-rule="nonzero" clip-path="url(#b97826509c)"><path style=" stroke:none;fill-rule:nonzero;fill:#000099;fill-opacity:1;" d="M 15 2.902344 C 14.238281 2.902344 13.480469 2.976562 12.734375 3.125 C 11.988281 3.273438 11.261719 3.496094 10.554688 3.789062 C 9.851562 4.078125 9.183594 4.4375 8.546875 4.859375 C 7.914062 5.285156 7.328125 5.765625 6.789062 6.304688 C 6.25 6.84375 5.769531 7.429688 5.34375 8.0625 C 4.921875 8.699219 4.5625 9.367188 4.269531 10.070312 C 3.980469 10.777344 3.757812 11.503906 3.609375 12.25 C 3.460938 13 3.386719 13.753906 3.386719 14.515625 C 3.386719 15.277344 3.460938 16.035156 3.609375 16.78125 C 3.757812 17.53125 3.980469 18.253906 4.269531 18.960938 C 4.5625 19.664062 4.921875 20.332031 5.34375 20.96875 C 5.769531 21.601562 6.25 22.1875 6.789062 22.726562 C 7.328125 23.265625 7.914062 23.75 8.546875 24.171875 C 9.183594 24.59375 9.851562 24.953125 10.554688 25.246094 C 11.261719 25.535156 11.988281 25.757812 12.734375 25.90625 C 13.480469 26.054688 14.238281 26.128906 15 26.128906 C 15.761719 26.128906 16.519531 26.054688 17.265625 25.90625 C 18.011719 25.757812 18.738281 25.535156 19.445312 25.246094 C 20.148438 24.953125 20.816406 24.59375 21.453125 24.171875 C 22.085938 23.75 22.671875 23.265625 23.210938 22.726562 C 23.75 22.1875 24.230469 21.601562 24.65625 20.96875 C 25.078125 20.332031 25.4375 19.664062 25.730469 18.960938 C 26.019531 18.253906 26.242188 17.53125 26.390625 16.78125 C 26.539062 16.035156 26.613281 15.277344 26.613281 14.515625 C 26.613281 13.753906 26.539062 13 26.390625 12.25 C 26.242188 11.503906 26.019531 10.777344 25.730469 10.074219 C 25.4375 9.367188 25.078125 8.699219 24.65625 8.066406 C 24.230469 7.429688 23.75 6.84375 23.210938 6.304688 C 22.671875 5.765625 22.085938 5.285156 21.453125 4.859375 C 20.816406 4.4375 20.148438 4.078125 19.445312 3.789062 C 18.738281 3.496094 18.011719 3.277344 17.265625 3.125 C 16.519531 2.976562 15.761719 2.902344 15 2.902344 Z M 21.609375 13.117188 L 20.960938 13.117188 L 20.960938 19.648438 C 20.960938 19.910156 20.914062 20.164062 20.8125 20.40625 C 20.710938 20.648438 20.570312 20.859375 20.382812 21.046875 C 20.199219 21.230469 19.984375 21.375 19.742188 21.476562 C 19.5 21.574219 19.246094 21.625 18.984375 21.625 L 17.035156 21.625 C 16.929688 21.625 16.839844 21.589844 16.765625 21.515625 C 16.691406 21.4375 16.65625 21.347656 16.65625 21.246094 L 16.65625 17.824219 C 16.652344 17.578125 16.566406 17.371094 16.390625 17.195312 C 16.21875 17.023438 16.007812 16.9375 15.761719 16.9375 L 14.234375 16.9375 C 13.988281 16.9375 13.78125 17.023438 13.605469 17.199219 C 13.433594 17.371094 13.34375 17.582031 13.34375 17.824219 L 13.34375 21.246094 C 13.34375 21.351562 13.308594 21.441406 13.230469 21.515625 C 13.15625 21.589844 13.066406 21.625 12.960938 21.625 L 11.011719 21.625 C 10.75 21.625 10.496094 21.574219 10.253906 21.472656 C 10.015625 21.375 9.800781 21.230469 9.617188 21.046875 C 9.429688 20.859375 9.289062 20.644531 9.1875 20.402344 C 9.085938 20.160156 9.039062 19.910156 9.039062 19.648438 L 9.039062 13.117188 L 8.386719 13.117188 C 8.246094 13.117188 8.121094 13.078125 8.007812 12.996094 C 7.890625 12.910156 7.8125 12.804688 7.769531 12.667969 C 7.726562 12.535156 7.726562 12.402344 7.773438 12.269531 C 7.816406 12.132812 7.898438 12.027344 8.015625 11.945312 L 13.847656 7.777344 C 14.195312 7.53125 14.578125 7.40625 15 7.40625 C 15.421875 7.40625 15.804688 7.53125 16.152344 7.777344 L 21.984375 11.945312 C 22.238281 12.128906 22.316406 12.371094 22.222656 12.667969 C 22.125 12.96875 21.921875 13.117188 21.609375 13.117188 Z M 21.609375 13.117188 "/></g></g></svg>