<svg xmlns="http://www.w3.org/2000/svg" xmlns:xlink="http://www.w3.org/1999/xlink" width="40" zoomAndPan="magnify" viewBox="0 0 30 30.000001" height="40" preserveAspectRatio="xMidYMid meet" version="1.2"><defs><clipPath id="e253cb49db"><path d="M 3.75 3.265625 L 26.25 3.265625 L 26.25 25.765625 L 3.75 25.765625 Z M 3.75 3.265625 "/></clipPath><clipPath id="e70bc2b14e"><path d="M 15 3.265625 C 8.785156 3.265625 3.75 8.304688 3.75 14.515625 C 3.75 20.730469 8.785156 25.765625 15 25.765625 C 21.214844 25.765625 26.25 20.730469 26.25 14.515625 C 26.25 8.304688 21.214844 3.265625 15 3.265625 Z M 15 3.265625 "/></clipPath><clipPath id="e039de335e"><path d="M 3.386719 2.902344 L 26.613281 2.902344 L 26.613281 26.128906 L 3.386719 26.128906 Z M 3.386719 2.902344 "/></clipPath></defs><g id="91115909c8"><g clip-rule="nonzero" clip-path="url(#e253cb49db)"><g clip-rule="nonzero" clip-path="url(#e70bc2b14e)"><path style=" stroke:none;fill-rule:nonzero;fill:#ffffff;fill-opacity:1;" d="M 3.75 3.265625 L 26.25 3.265625 L 26.25 25.765625 L 3.75 25.765625 Z M 3.75 3.265625 "/></g></g><g clip-rule="nonzero" clip-path="url(#e039de335e)"><path style=" stroke:none;fill-rule:evenodd;fill:#000099;fill-opacity:1;" d="M 15 2.902344 C 8.585938 2.902344 3.386719 8.101562 3.386719 14.515625 C 3.386719 20.929688 8.585938 26.128906 15 26.128906 C 21.414062 26.128906 26.613281 20.929688 26.613281 14.515625 C 26.613281 8.101562 21.414062 2.902344 15 2.902344 Z M 16.054688 17.15625 C 16.054688 15.699219 17.238281 14.515625 18.695312 14.515625 C 18.875 14.515625 19.050781 14.535156 19.222656 14.570312 L 19.222656 9.582031 L 13.945312 11.089844 L 13.945312 19.265625 C 13.945312 20.722656 12.761719 21.90625 11.304688 21.90625 C 9.847656 21.90625 8.664062 20.722656 8.664062 19.265625 C 8.664062 17.808594 9.847656 16.628906 11.304688 16.628906 C 11.484375 16.628906 11.664062 16.644531 11.832031 16.679688 L 11.832031 10.292969 C 11.832031 9.820312 12.144531 9.40625 12.597656 9.277344 L 19.988281 7.167969 C 20.308594 7.074219 20.648438 7.140625 20.914062 7.339844 C 21.179688 7.539062 21.335938 7.851562 21.335938 8.183594 L 21.335938 17.15625 C 21.335938 18.613281 20.152344 19.792969 18.695312 19.792969 C 17.238281 19.792969 16.054688 18.613281 16.054688 17.15625 Z M 16.054688 17.15625 "/></g></g></svg>