<svg xmlns="http://www.w3.org/2000/svg" xmlns:xlink="http://www.w3.org/1999/xlink" width="40" zoomAndPan="magnify" viewBox="0 0 30 30.000001" height="40" preserveAspectRatio="xMidYMid meet" version="1.2"><defs><clipPath id="6525b0ae7f"><path d="M 3.386719 2.902344 L 26.613281 2.902344 L 26.613281 26.128906 L 3.386719 26.128906 Z M 3.386719 2.902344 "/></clipPath><clipPath id="30c91bb0f5"><path d="M 15 2.902344 C 8.585938 2.902344 3.386719 8.101562 3.386719 14.515625 C 3.386719 20.929688 8.585938 26.128906 15 26.128906 C 21.414062 26.128906 26.613281 20.929688 26.613281 14.515625 C 26.613281 8.101562 21.414062 2.902344 15 2.902344 Z M 15 2.902344 "/></clipPath><clipPath id="4a9af7f28d"><path d="M 3.386719 2.902344 L 26.613281 2.902344 L 26.613281 26.128906 L 3.386719 26.128906 Z M 3.386719 2.902344 "/></clipPath></defs><g id="a118c0bda7"><g clip-rule="nonzero" clip-path="url(#6525b0ae7f)"><g clip-rule="nonzero" clip-path="url(#30c91bb0f5)"><path style=" stroke:none;fill-rule:nonzero;fill:#ffffff;fill-opacity:1;" d="M 3.386719 2.902344 L 26.613281 2.902344 L 26.613281 26.128906 L 3.386719 26.128906 Z M 3.386719 2.902344 "/></g></g><g clip-rule="nonzero" clip-path="url(#4a9af7f28d)"><path style=" stroke:none;fill-rule:nonzero;fill:#000099;fill-opacity:1;" d="M 15 2.902344 C 21.417969 2.902344 26.613281 8.097656 26.613281 14.515625 C 26.613281 20.933594 21.417969 26.128906 15 26.128906 C 8.582031 26.128906 3.386719 20.933594 3.386719 14.515625 C 3.386719 8.097656 8.582031 2.902344 15 2.902344 Z M 11.242188 18.613281 L 14.316406 18.613281 C 14.695312 18.613281 15 18.308594 15 17.933594 C 15 17.554688 14.695312 17.25 14.316406 17.25 L 11.242188 17.25 C 10.300781 17.25 9.535156 16.484375 9.535156 15.539062 C 9.535156 14.597656 10.300781 13.832031 11.242188 13.832031 L 18.816406 13.832031 L 17.933594 14.714844 C 17.664062 14.984375 17.664062 15.414062 17.933594 15.683594 C 18.199219 15.949219 18.632812 15.949219 18.898438 15.683594 L 20.949219 13.632812 C 20.964844 13.617188 20.980469 13.601562 20.992188 13.582031 C 21 13.574219 21.003906 13.566406 21.011719 13.558594 C 21.019531 13.550781 21.027344 13.539062 21.03125 13.527344 C 21.039062 13.519531 21.046875 13.507812 21.050781 13.5 C 21.054688 13.488281 21.0625 13.480469 21.066406 13.472656 C 21.074219 13.460938 21.078125 13.449219 21.082031 13.441406 C 21.085938 13.429688 21.09375 13.421875 21.097656 13.410156 C 21.101562 13.402344 21.105469 13.390625 21.109375 13.378906 C 21.109375 13.371094 21.117188 13.359375 21.117188 13.347656 C 21.121094 13.335938 21.125 13.328125 21.125 13.316406 C 21.128906 13.304688 21.132812 13.292969 21.136719 13.285156 C 21.136719 13.269531 21.140625 13.257812 21.140625 13.246094 C 21.140625 13.238281 21.144531 13.226562 21.144531 13.21875 C 21.148438 13.171875 21.148438 13.128906 21.144531 13.082031 C 21.144531 13.074219 21.140625 13.0625 21.140625 13.054688 C 21.140625 13.042969 21.136719 13.027344 21.136719 13.015625 C 21.132812 13.003906 21.128906 12.996094 21.125 12.984375 C 21.125 12.972656 21.121094 12.960938 21.117188 12.953125 C 21.117188 12.941406 21.109375 12.929688 21.109375 12.917969 C 21.105469 12.910156 21.101562 12.898438 21.097656 12.886719 C 21.09375 12.878906 21.085938 12.867188 21.082031 12.859375 C 21.078125 12.847656 21.074219 12.839844 21.066406 12.828125 C 21.0625 12.820312 21.054688 12.808594 21.050781 12.800781 C 21.046875 12.789062 21.039062 12.78125 21.03125 12.769531 C 21.027344 12.761719 21.019531 12.75 21.011719 12.742188 C 21.003906 12.734375 21 12.726562 20.992188 12.71875 C 20.980469 12.699219 20.964844 12.683594 20.949219 12.667969 L 18.898438 10.617188 C 18.632812 10.351562 18.199219 10.351562 17.933594 10.617188 C 17.664062 10.882812 17.664062 11.316406 17.933594 11.582031 L 18.816406 12.464844 L 11.242188 12.464844 C 9.546875 12.464844 8.167969 13.847656 8.167969 15.539062 C 8.167969 17.234375 9.546875 18.613281 11.242188 18.613281 Z M 11.242188 18.613281 "/></g></g></svg>