<svg xmlns="http://www.w3.org/2000/svg" xmlns:xlink="http://www.w3.org/1999/xlink" width="40" zoomAndPan="magnify" viewBox="0 0 30 30.000001" height="40" preserveAspectRatio="xMidYMid meet" version="1.2"><defs><clipPath id="2f2f52da17"><path d="M 3.386719 2.902344 L 26.613281 2.902344 L 26.613281 26.128906 L 3.386719 26.128906 Z M 3.386719 2.902344 "/></clipPath><clipPath id="e8164d5229"><path d="M 15 2.902344 C 8.585938 2.902344 3.386719 8.101562 3.386719 14.515625 C 3.386719 20.929688 8.585938 26.128906 15 26.128906 C 21.414062 26.128906 26.613281 20.929688 26.613281 14.515625 C 26.613281 8.101562 21.414062 2.902344 15 2.902344 Z M 15 2.902344 "/></clipPath><clipPath id="49e219fbea"><path d="M 3.386719 2.902344 L 26.613281 2.902344 L 26.613281 26.128906 L 3.386719 26.128906 Z M 3.386719 2.902344 "/></clipPath></defs><g id="ca81e79a5b"><g clip-rule="nonzero" clip-path="url(#2f2f52da17)"><g clip-rule="nonzero" clip-path="url(#e8164d5229)"><path style=" stroke:none;fill-rule:nonzero;fill:#ffffff;fill-opacity:1;" d="M 3.386719 2.902344 L 26.613281 2.902344 L 26.613281 26.128906 L 3.386719 26.128906 Z M 3.386719 2.902344 "/></g></g><path style=" stroke:none;fill-rule:nonzero;fill:#000099;fill-opacity:1;" d="M 15 13.621094 C 14.628906 13.621094 14.273438 13.546875 13.929688 13.40625 C 13.585938 13.265625 13.285156 13.0625 13.023438 12.800781 C 12.757812 12.539062 12.558594 12.234375 12.414062 11.890625 C 12.273438 11.550781 12.203125 11.191406 12.203125 10.820312 C 12.203125 10.449219 12.273438 10.09375 12.414062 9.75 C 12.558594 9.410156 12.757812 9.105469 13.023438 8.84375 C 13.285156 8.582031 13.585938 8.378906 13.929688 8.238281 C 14.273438 8.09375 14.628906 8.023438 15 8.023438 C 18.710938 8.175781 18.710938 13.46875 15 13.621094 Z M 15 13.621094 "/><path style=" stroke:none;fill-rule:nonzero;fill:#000099;fill-opacity:1;" d="M 21.042969 19.144531 C 21.042969 19.390625 20.996094 19.628906 20.902344 19.855469 C 20.804688 20.085938 20.671875 20.289062 20.496094 20.460938 C 20.320312 20.636719 20.121094 20.773438 19.890625 20.867188 C 19.664062 20.960938 19.425781 21.007812 19.175781 21.007812 L 10.824219 21.007812 C 10.574219 21.007812 10.335938 20.960938 10.109375 20.867188 C 9.878906 20.773438 9.679688 20.636719 9.503906 20.460938 C 9.328125 20.289062 9.195312 20.085938 9.097656 19.855469 C 9.003906 19.628906 8.957031 19.390625 8.957031 19.144531 C 8.957031 16.519531 11.667969 14.382812 15 14.382812 C 18.332031 14.382812 21.042969 16.519531 21.042969 19.144531 Z M 21.042969 19.144531 "/><g clip-rule="nonzero" clip-path="url(#49e219fbea)"><path style=" stroke:none;fill-rule:nonzero;fill:#000099;fill-opacity:1;" d="M 15 2.902344 C 14.238281 2.902344 13.480469 2.976562 12.734375 3.125 C 11.988281 3.273438 11.261719 3.496094 10.554688 3.789062 C 9.851562 4.078125 9.183594 4.4375 8.546875 4.859375 C 7.914062 5.285156 7.328125 5.765625 6.789062 6.304688 C 6.25 6.84375 5.769531 7.429688 5.34375 8.0625 C 4.921875 8.699219 4.5625 9.367188 4.269531 10.070312 C 3.980469 10.777344 3.757812 11.503906 3.609375 12.25 C 3.460938 13 3.386719 13.753906 3.386719 14.515625 C 3.386719 15.277344 3.460938 16.035156 3.609375 16.78125 C 3.757812 17.53125 3.980469 18.253906 4.269531 18.960938 C 4.5625 19.664062 4.921875 20.332031 5.34375 20.96875 C 5.769531 21.601562 6.25 22.1875 6.789062 22.726562 C 7.328125 23.265625 7.914062 23.75 8.546875 24.171875 C 9.183594 24.59375 9.851562 24.953125 10.554688 25.246094 C 11.261719 25.535156 11.988281 25.757812 12.734375 25.90625 C 13.480469 26.054688 14.238281 26.128906 15 26.128906 C 15.761719 26.128906 16.519531 26.054688 17.265625 25.90625 C 18.011719 25.757812 18.738281 25.535156 19.445312 25.246094 C 20.148438 24.953125 20.816406 24.59375 21.453125 24.171875 C 22.085938 23.75 22.671875 23.265625 23.210938 22.726562 C 23.75 22.1875 24.230469 21.601562 24.65625 20.96875 C 25.078125 20.332031 25.4375 19.664062 25.730469 18.960938 C 26.019531 18.253906 26.242188 17.53125 26.390625 16.78125 C 26.539062 16.035156 26.613281 15.277344 26.613281 14.515625 C 26.613281 13.753906 26.539062 13 26.390625 12.25 C 26.242188 11.503906 26.019531 10.777344 25.730469 10.074219 C 25.4375 9.367188 25.078125 8.699219 24.65625 8.066406 C 24.230469 7.429688 23.75 6.84375 23.210938 6.304688 C 22.671875 5.765625 22.085938 5.285156 21.453125 4.859375 C 20.816406 4.4375 20.148438 4.078125 19.445312 3.789062 C 18.738281 3.496094 18.011719 3.277344 17.265625 3.125 C 16.519531 2.976562 15.761719 2.902344 15 2.902344 Z M 19.175781 21.773438 L 10.824219 21.773438 C 10.472656 21.773438 10.136719 21.707031 9.816406 21.574219 C 9.496094 21.441406 9.210938 21.25 8.964844 21.003906 C 8.714844 20.757812 8.527344 20.472656 8.394531 20.148438 C 8.257812 19.828125 8.191406 19.492188 8.191406 19.144531 C 8.191406 16.628906 10.273438 14.5 13.113281 13.835938 C 10.117188 11.945312 11.410156 7.292969 15 7.257812 C 18.589844 7.289062 19.882812 11.949219 16.886719 13.835938 C 19.726562 14.5 21.808594 16.628906 21.808594 19.144531 C 21.808594 19.492188 21.742188 19.828125 21.605469 20.148438 C 21.472656 20.472656 21.285156 20.757812 21.035156 21.003906 C 20.789062 21.25 20.503906 21.441406 20.183594 21.574219 C 19.863281 21.707031 19.527344 21.773438 19.175781 21.773438 Z M 19.175781 21.773438 "/></g></g></svg>