<svg xmlns="http://www.w3.org/2000/svg" xmlns:xlink="http://www.w3.org/1999/xlink" width="40" zoomAndPan="magnify" viewBox="0 0 30 30.000001" height="40" preserveAspectRatio="xMidYMid meet" version="1.2"><defs><clipPath id="ff1608f6d7"><path d="M 3.386719 2.902344 L 26.613281 2.902344 L 26.613281 26.128906 L 3.386719 26.128906 Z M 3.386719 2.902344 "/></clipPath><clipPath id="c2873488b6"><path d="M 15 2.902344 C 8.585938 2.902344 3.386719 8.101562 3.386719 14.515625 C 3.386719 20.929688 8.585938 26.128906 15 26.128906 C 21.414062 26.128906 26.613281 20.929688 26.613281 14.515625 C 26.613281 8.101562 21.414062 2.902344 15 2.902344 Z M 15 2.902344 "/></clipPath><clipPath id="2bd2b47007"><path d="M 3.386719 2.902344 L 26.613281 2.902344 L 26.613281 26.128906 L 3.386719 26.128906 Z M 3.386719 2.902344 "/></clipPath></defs><g id="a44e368ff6"><g clip-rule="nonzero" clip-path="url(#ff1608f6d7)"><g clip-rule="nonzero" clip-path="url(#c2873488b6)"><path style=" stroke:none;fill-rule:nonzero;fill:#ffffff;fill-opacity:1;" d="M 3.386719 2.902344 L 26.613281 2.902344 L 26.613281 26.128906 L 3.386719 26.128906 Z M 3.386719 2.902344 "/></g></g><g clip-rule="nonzero" clip-path="url(#2bd2b47007)"><path style=" stroke:none;fill-rule:nonzero;fill:#000099;fill-opacity:1;" d="M 15 2.902344 C 14.238281 2.902344 13.480469 2.976562 12.734375 3.125 C 11.988281 3.273438 11.261719 3.496094 10.554688 3.789062 C 9.851562 4.078125 9.183594 4.4375 8.546875 4.859375 C 7.914062 5.285156 7.328125 5.765625 6.789062 6.304688 C 6.25 6.84375 5.769531 7.429688 5.34375 8.0625 C 4.921875 8.699219 4.5625 9.367188 4.269531 10.070312 C 3.980469 10.777344 3.757812 11.503906 3.609375 12.25 C 3.460938 13 3.386719 13.753906 3.386719 14.515625 C 3.386719 15.277344 3.460938 16.035156 3.609375 16.78125 C 3.757812 17.53125 3.980469 18.253906 4.269531 18.960938 C 4.5625 19.664062 4.921875 20.332031 5.34375 20.96875 C 5.769531 21.601562 6.25 22.1875 6.789062 22.726562 C 7.328125 23.265625 7.914062 23.75 8.546875 24.171875 C 9.183594 24.59375 9.851562 24.953125 10.554688 25.246094 C 11.261719 25.535156 11.988281 25.757812 12.734375 25.90625 C 13.480469 26.054688 14.238281 26.128906 15 26.128906 C 15.761719 26.128906 16.519531 26.054688 17.265625 25.90625 C 18.011719 25.757812 18.738281 25.535156 19.445312 25.246094 C 20.148438 24.953125 20.816406 24.59375 21.453125 24.171875 C 22.085938 23.75 22.671875 23.265625 23.210938 22.726562 C 23.75 22.1875 24.230469 21.601562 24.65625 20.96875 C 25.078125 20.332031 25.4375 19.664062 25.730469 18.960938 C 26.019531 18.253906 26.242188 17.53125 26.390625 16.78125 C 26.539062 16.035156 26.613281 15.277344 26.613281 14.515625 C 26.613281 13.753906 26.539062 13 26.390625 12.25 C 26.242188 11.503906 26.019531 10.777344 25.730469 10.070312 C 25.4375 9.367188 25.078125 8.699219 24.65625 8.0625 C 24.230469 7.429688 23.75 6.84375 23.210938 6.304688 C 22.671875 5.765625 22.085938 5.285156 21.453125 4.859375 C 20.816406 4.4375 20.148438 4.078125 19.445312 3.789062 C 18.738281 3.496094 18.011719 3.273438 17.265625 3.125 C 16.519531 2.976562 15.761719 2.902344 15 2.902344 Z M 22.433594 20.089844 L 8.496094 20.089844 C 8.34375 20.089844 8.195312 20.0625 8.050781 20 C 7.910156 19.941406 7.785156 19.859375 7.675781 19.75 C 7.566406 19.640625 7.484375 19.515625 7.425781 19.375 C 7.363281 19.230469 7.335938 19.082031 7.335938 18.929688 L 7.335938 9.175781 C 7.335938 9.019531 7.414062 8.941406 7.566406 8.941406 C 7.722656 8.941406 7.800781 9.019531 7.800781 9.175781 L 7.800781 18.929688 C 7.800781 19.121094 7.867188 19.285156 8.003906 19.421875 C 8.140625 19.558594 8.304688 19.625 8.496094 19.625 L 11.515625 19.625 L 11.515625 15.675781 C 11.515625 15.484375 11.585938 15.320312 11.722656 15.183594 C 11.855469 15.050781 12.019531 14.980469 12.214844 14.980469 L 14.070312 14.980469 C 14.261719 14.980469 14.425781 15.050781 14.5625 15.183594 C 14.699219 15.320312 14.765625 15.484375 14.769531 15.675781 L 14.769531 19.625 L 18.484375 19.625 L 18.484375 12.425781 C 18.484375 12.234375 18.550781 12.070312 18.6875 11.933594 C 18.824219 11.796875 18.988281 11.730469 19.179688 11.730469 L 21.039062 11.730469 C 21.230469 11.730469 21.394531 11.796875 21.53125 11.933594 C 21.667969 12.070312 21.734375 12.234375 21.734375 12.425781 L 21.734375 19.625 L 22.433594 19.625 C 22.585938 19.625 22.664062 19.703125 22.664062 19.859375 C 22.664062 20.011719 22.585938 20.089844 22.433594 20.089844 Z M 22.664062 10.335938 C 22.664062 10.492188 22.585938 10.566406 22.433594 10.566406 C 22.277344 10.566406 22.199219 10.492188 22.199219 10.335938 L 22.199219 9.96875 L 21.105469 11.058594 C 20.972656 11.195312 20.808594 11.265625 20.613281 11.265625 L 18.445312 11.265625 C 18.378906 11.265625 18.324219 11.285156 18.28125 11.332031 L 15.300781 14.3125 C 15.164062 14.449219 15 14.515625 14.808594 14.515625 L 11.476562 14.515625 C 11.410156 14.515625 11.355469 14.539062 11.3125 14.585938 L 8.660156 17.234375 C 8.550781 17.34375 8.441406 17.34375 8.335938 17.234375 C 8.226562 17.125 8.226562 17.015625 8.332031 16.90625 L 10.984375 14.253906 C 11.121094 14.121094 11.285156 14.050781 11.476562 14.050781 L 14.808594 14.050781 C 14.871094 14.050781 14.925781 14.027344 14.972656 13.984375 L 17.953125 11.003906 C 18.085938 10.867188 18.25 10.800781 18.445312 10.800781 L 20.613281 10.800781 C 20.679688 10.800781 20.734375 10.777344 20.777344 10.730469 L 21.871094 9.640625 L 21.503906 9.640625 C 21.347656 9.640625 21.269531 9.5625 21.269531 9.40625 C 21.269531 9.25 21.347656 9.175781 21.503906 9.175781 L 22.433594 9.175781 C 22.585938 9.175781 22.664062 9.25 22.664062 9.40625 Z M 22.664062 10.335938 "/></g></g></svg>