<svg xmlns="http://www.w3.org/2000/svg" xmlns:xlink="http://www.w3.org/1999/xlink" width="40" zoomAndPan="magnify" viewBox="0 0 30 30.000001" height="40" preserveAspectRatio="xMidYMid meet" version="1.2"><defs><clipPath id="fcc2c09377"><path d="M 3.386719 2.902344 L 26.613281 2.902344 L 26.613281 26.128906 L 3.386719 26.128906 Z M 3.386719 2.902344 "/></clipPath></defs><g id="b7546e28da"><g clip-rule="nonzero" clip-path="url(#fcc2c09377)"><path style=" stroke:none;fill-rule:nonzero;fill:#000099;fill-opacity:1;" d="M 26.613281 14.515625 C 26.613281 15.277344 26.539062 16.035156 26.390625 16.78125 C 26.242188 17.53125 26.019531 18.253906 25.730469 18.960938 C 25.4375 19.664062 25.078125 20.332031 24.65625 20.96875 C 24.230469 21.601562 23.75 22.1875 23.210938 22.726562 C 22.671875 23.265625 22.085938 23.75 21.453125 24.171875 C 20.816406 24.59375 20.148438 24.953125 19.445312 25.246094 C 18.738281 25.535156 18.011719 25.757812 17.265625 25.90625 C 16.519531 26.054688 15.761719 26.128906 15 26.128906 C 14.238281 26.128906 13.480469 26.054688 12.734375 25.90625 C 11.988281 25.757812 11.261719 25.535156 10.554688 25.246094 C 9.851562 24.953125 9.183594 24.59375 8.546875 24.171875 C 7.914062 23.75 7.328125 23.265625 6.789062 22.726562 C 6.25 22.1875 5.769531 21.601562 5.34375 20.96875 C 4.921875 20.332031 4.5625 19.664062 4.269531 18.960938 C 3.980469 18.253906 3.757812 17.53125 3.609375 16.78125 C 3.460938 16.035156 3.386719 15.277344 3.386719 14.515625 C 3.386719 13.753906 3.460938 13 3.609375 12.25 C 3.757812 11.503906 3.980469 10.777344 4.269531 10.070312 C 4.5625 9.367188 4.921875 8.699219 5.34375 8.0625 C 5.769531 7.429688 6.25 6.84375 6.789062 6.304688 C 7.328125 5.765625 7.914062 5.285156 8.546875 4.859375 C 9.183594 4.4375 9.851562 4.078125 10.554688 3.789062 C 11.261719 3.496094 11.988281 3.273438 12.734375 3.125 C 13.480469 2.976562 14.238281 2.902344 15 2.902344 C 15.761719 2.902344 16.519531 2.976562 17.265625 3.125 C 18.011719 3.273438 18.738281 3.496094 19.445312 3.789062 C 20.148438 4.078125 20.816406 4.4375 21.453125 4.859375 C 22.085938 5.285156 22.671875 5.765625 23.210938 6.304688 C 23.75 6.84375 24.230469 7.429688 24.65625 8.0625 C 25.078125 8.699219 25.4375 9.367188 25.730469 10.070312 C 26.019531 10.777344 26.242188 11.503906 26.390625 12.25 C 26.539062 13 26.613281 13.753906 26.613281 14.515625 Z M 26.613281 14.515625 "/></g><path style=" stroke:none;fill-rule:evenodd;fill:#ffffff;fill-opacity:1;" d="M 12.40625 7.582031 L 12.40625 7.394531 C 12.40625 7.128906 12.511719 6.871094 12.703125 6.683594 C 12.890625 6.492188 13.148438 6.386719 13.414062 6.386719 L 16.585938 6.386719 C 16.851562 6.386719 17.109375 6.492188 17.296875 6.683594 C 17.488281 6.871094 17.59375 7.128906 17.59375 7.394531 L 17.59375 7.582031 L 19.496094 7.582031 C 19.84375 7.582031 20.179688 7.722656 20.425781 7.96875 C 20.671875 8.214844 20.808594 8.546875 20.808594 8.894531 L 20.808594 21.332031 C 20.808594 21.679688 20.671875 22.015625 20.425781 22.261719 C 20.179688 22.507812 19.84375 22.644531 19.496094 22.644531 L 10.503906 22.644531 C 10.15625 22.644531 9.820312 22.507812 9.574219 22.261719 C 9.328125 22.015625 9.191406 21.679688 9.191406 21.332031 L 9.191406 8.894531 C 9.191406 8.546875 9.328125 8.214844 9.574219 7.96875 C 9.820312 7.722656 10.15625 7.582031 10.503906 7.582031 Z M 12.40625 8.234375 L 10.503906 8.234375 C 10.328125 8.234375 10.160156 8.304688 10.035156 8.425781 C 9.910156 8.550781 9.839844 8.71875 9.839844 8.894531 L 9.839844 21.332031 C 9.839844 21.507812 9.910156 21.675781 10.035156 21.800781 C 10.160156 21.925781 10.328125 21.996094 10.503906 21.996094 L 19.496094 21.996094 C 19.671875 21.996094 19.839844 21.925781 19.964844 21.800781 C 20.089844 21.675781 20.160156 21.507812 20.160156 21.332031 L 20.160156 8.894531 C 20.160156 8.71875 20.089844 8.550781 19.964844 8.425781 C 19.839844 8.304688 19.671875 8.234375 19.496094 8.234375 L 17.59375 8.234375 L 17.59375 8.257812 C 17.59375 8.617188 17.300781 8.90625 16.941406 8.90625 L 13.058594 8.90625 C 12.699219 8.90625 12.40625 8.617188 12.40625 8.257812 Z M 11.960938 19.1875 L 12.832031 18.316406 C 12.960938 18.191406 13.167969 18.191406 13.292969 18.316406 C 13.421875 18.445312 13.421875 18.652344 13.292969 18.777344 L 12.191406 19.882812 C 12.0625 20.007812 11.855469 20.007812 11.730469 19.882812 L 11.261719 19.414062 C 11.132812 19.285156 11.132812 19.078125 11.261719 18.949219 C 11.386719 18.824219 11.59375 18.824219 11.722656 18.949219 Z M 14.203125 19.507812 L 18.722656 19.507812 C 18.902344 19.507812 19.046875 19.359375 19.046875 19.183594 C 19.046875 19.003906 18.902344 18.855469 18.722656 18.855469 L 14.203125 18.855469 C 14.023438 18.855469 13.878906 19.003906 13.878906 19.183594 C 13.878906 19.359375 14.023438 19.507812 14.203125 19.507812 Z M 11.960938 15.285156 L 12.832031 14.414062 C 12.960938 14.289062 13.167969 14.289062 13.292969 14.414062 C 13.421875 14.542969 13.421875 14.75 13.292969 14.875 L 12.191406 15.980469 C 12.0625 16.105469 11.855469 16.105469 11.730469 15.980469 L 11.261719 15.511719 C 11.132812 15.382812 11.132812 15.175781 11.261719 15.050781 C 11.386719 14.921875 11.59375 14.921875 11.722656 15.050781 Z M 14.203125 15.605469 L 18.722656 15.605469 C 18.902344 15.605469 19.046875 15.460938 19.046875 15.28125 C 19.046875 15.101562 18.902344 14.953125 18.722656 14.953125 L 14.203125 14.953125 C 14.023438 14.953125 13.878906 15.101562 13.878906 15.28125 C 13.878906 15.460938 14.023438 15.605469 14.203125 15.605469 Z M 11.964844 11.371094 L 12.835938 10.5 C 12.960938 10.371094 13.167969 10.371094 13.296875 10.5 C 13.425781 10.625 13.425781 10.832031 13.296875 10.960938 L 12.195312 12.0625 C 12.066406 12.191406 11.859375 12.191406 11.730469 12.0625 L 11.265625 11.59375 C 11.136719 11.46875 11.136719 11.261719 11.265625 11.132812 C 11.390625 11.003906 11.597656 11.003906 11.726562 11.132812 Z M 14.203125 11.703125 L 18.722656 11.703125 C 18.902344 11.703125 19.046875 11.558594 19.046875 11.378906 C 19.046875 11.199219 18.902344 11.054688 18.722656 11.054688 L 14.203125 11.054688 C 14.023438 11.054688 13.878906 11.199219 13.878906 11.378906 C 13.878906 11.558594 14.023438 11.703125 14.203125 11.703125 Z M 16.941406 7.394531 C 16.941406 7.300781 16.90625 7.210938 16.835938 7.140625 C 16.769531 7.074219 16.679688 7.039062 16.585938 7.039062 L 13.414062 7.039062 C 13.320312 7.039062 13.230469 7.074219 13.160156 7.140625 C 13.09375 7.210938 13.058594 7.300781 13.058594 7.394531 L 13.058594 8.257812 L 16.941406 8.257812 Z M 16.941406 7.394531 "/></g></svg>