<svg xmlns="http://www.w3.org/2000/svg" xmlns:xlink="http://www.w3.org/1999/xlink" width="40" zoomAndPan="magnify" viewBox="0 0 30 30.000001" height="40" preserveAspectRatio="xMidYMid meet" version="1.2"><defs><clipPath id="2c238afb1e"><path d="M 3.386719 2.902344 L 26.613281 2.902344 L 26.613281 26.128906 L 3.386719 26.128906 Z M 3.386719 2.902344 "/></clipPath><clipPath id="f2d26bb201"><path d="M 15 2.902344 C 8.585938 2.902344 3.386719 8.101562 3.386719 14.515625 C 3.386719 20.929688 8.585938 26.128906 15 26.128906 C 21.414062 26.128906 26.613281 20.929688 26.613281 14.515625 C 26.613281 8.101562 21.414062 2.902344 15 2.902344 Z M 15 2.902344 "/></clipPath><clipPath id="4c69c55da9"><path d="M 3.386719 2.902344 L 26.613281 2.902344 L 26.613281 26.128906 L 3.386719 26.128906 Z M 3.386719 2.902344 "/></clipPath></defs><g id="ca6cf9958b"><g clip-rule="nonzero" clip-path="url(#2c238afb1e)"><g clip-rule="nonzero" clip-path="url(#f2d26bb201)"><path style=" stroke:none;fill-rule:nonzero;fill:#ffffff;fill-opacity:1;" d="M 3.386719 2.902344 L 26.613281 2.902344 L 26.613281 26.128906 L 3.386719 26.128906 Z M 3.386719 2.902344 "/></g></g><g clip-rule="nonzero" clip-path="url(#4c69c55da9)"><path style=" stroke:none;fill-rule:nonzero;fill:#000099;fill-opacity:1;" d="M 26.613281 14.515625 C 26.613281 15.277344 26.539062 16.035156 26.390625 16.78125 C 26.242188 17.53125 26.019531 18.253906 25.730469 18.960938 C 25.4375 19.664062 25.078125 20.332031 24.65625 20.96875 C 24.230469 21.601562 23.75 22.1875 23.210938 22.726562 C 22.671875 23.265625 22.085938 23.75 21.453125 24.171875 C 20.816406 24.59375 20.148438 24.953125 19.445312 25.246094 C 18.738281 25.535156 18.011719 25.757812 17.265625 25.90625 C 16.519531 26.054688 15.761719 26.128906 15 26.128906 C 14.238281 26.128906 13.480469 26.054688 12.734375 25.90625 C 11.988281 25.757812 11.261719 25.535156 10.554688 25.246094 C 9.851562 24.953125 9.183594 24.59375 8.546875 24.171875 C 7.914062 23.75 7.328125 23.265625 6.789062 22.726562 C 6.25 22.1875 5.769531 21.601562 5.34375 20.96875 C 4.921875 20.332031 4.5625 19.664062 4.269531 18.960938 C 3.980469 18.253906 3.757812 17.53125 3.609375 16.78125 C 3.460938 16.035156 3.386719 15.277344 3.386719 14.515625 C 3.386719 13.753906 3.460938 13 3.609375 12.25 C 3.757812 11.503906 3.980469 10.777344 4.269531 10.070312 C 4.5625 9.367188 4.921875 8.699219 5.34375 8.0625 C 5.769531 7.429688 6.25 6.84375 6.789062 6.304688 C 7.328125 5.765625 7.914062 5.285156 8.546875 4.859375 C 9.183594 4.4375 9.851562 4.078125 10.554688 3.789062 C 11.261719 3.496094 11.988281 3.273438 12.734375 3.125 C 13.480469 2.976562 14.238281 2.902344 15 2.902344 C 15.761719 2.902344 16.519531 2.976562 17.265625 3.125 C 18.011719 3.273438 18.738281 3.496094 19.445312 3.789062 C 20.148438 4.078125 20.816406 4.4375 21.453125 4.859375 C 22.085938 5.285156 22.671875 5.765625 23.210938 6.304688 C 23.75 6.84375 24.230469 7.429688 24.65625 8.0625 C 25.078125 8.699219 25.4375 9.367188 25.730469 10.070312 C 26.019531 10.777344 26.242188 11.503906 26.390625 12.25 C 26.539062 13 26.613281 13.753906 26.613281 14.515625 Z M 26.613281 14.515625 "/></g><path style=" stroke:none;fill-rule:nonzero;fill:#ffffff;fill-opacity:1;" d="M 10.523438 21.28125 L 19.472656 21.28125 C 19.535156 21.28125 19.59375 21.257812 19.636719 21.214844 C 19.675781 21.171875 19.699219 21.113281 19.699219 21.050781 L 19.699219 19.785156 C 19.699219 19.652344 19.601562 19.566406 19.472656 19.566406 L 19.09375 19.566406 L 19.09375 9.46875 L 19.472656 9.46875 C 19.601562 9.46875 19.699219 9.378906 19.699219 9.25 L 19.699219 7.980469 C 19.699219 7.921875 19.675781 7.863281 19.636719 7.816406 C 19.59375 7.777344 19.535156 7.753906 19.472656 7.753906 L 10.523438 7.753906 C 10.460938 7.753906 10.402344 7.777344 10.359375 7.816406 C 10.316406 7.859375 10.292969 7.921875 10.292969 7.980469 L 10.292969 9.25 C 10.292969 9.378906 10.390625 9.46875 10.523438 9.46875 L 10.902344 9.46875 L 10.902344 19.570312 L 10.523438 19.570312 C 10.390625 19.570312 10.292969 19.660156 10.292969 19.789062 L 10.292969 21.054688 C 10.292969 21.117188 10.316406 21.171875 10.359375 21.21875 C 10.40625 21.261719 10.460938 21.285156 10.523438 21.28125 Z M 18.628906 19.570312 L 17.816406 19.570312 L 17.816406 18.019531 C 17.816406 17.996094 17.828125 17.972656 17.828125 17.945312 C 17.828125 17.917969 17.816406 17.894531 17.816406 17.871094 L 17.816406 16.929688 C 17.816406 15.867188 17.003906 14.984375 15.957031 14.871094 L 15.957031 14.195312 C 17.003906 14.078125 17.816406 13.203125 17.816406 12.132812 L 17.816406 9.460938 L 18.628906 9.460938 Z M 12.648438 19.570312 L 12.648438 18.175781 L 17.351562 18.175781 L 17.351562 19.570312 Z M 14.265625 13.746094 C 13.378906 13.746094 12.648438 13.023438 12.648438 12.136719 L 12.648438 9.46875 L 17.351562 9.46875 L 17.351562 12.136719 C 17.351562 13.023438 16.621094 13.746094 15.734375 13.746094 C 15.605469 13.746094 15.496094 13.847656 15.492188 13.976562 L 15.492188 15.085938 C 15.496094 15.21875 15.605469 15.320312 15.734375 15.320312 C 16.621094 15.320312 17.351562 16.039062 17.351562 16.925781 L 17.351562 17.707031 L 12.648438 17.707031 L 12.648438 16.925781 C 12.648438 16.039062 13.378906 15.320312 14.265625 15.320312 C 14.394531 15.320312 14.503906 15.21875 14.507812 15.085938 L 14.507812 13.976562 C 14.503906 13.847656 14.394531 13.746094 14.265625 13.746094 Z M 10.761719 8.21875 L 19.242188 8.21875 L 19.242188 9.003906 L 10.761719 9.003906 Z M 11.371094 9.46875 L 12.183594 9.46875 L 12.183594 12.136719 C 12.183594 13.203125 12.996094 14.085938 14.042969 14.199219 L 14.042969 14.875 C 12.996094 14.988281 12.183594 15.867188 12.183594 16.9375 L 12.183594 17.875 C 12.183594 17.898438 12.171875 17.921875 12.171875 17.949219 C 12.171875 17.976562 12.183594 18 12.183594 18.023438 L 12.183594 19.574219 L 11.371094 19.574219 Z M 10.761719 20.03125 L 19.242188 20.03125 L 19.242188 20.816406 L 10.761719 20.816406 Z M 10.761719 20.03125 "/></g></svg>