<svg xmlns="http://www.w3.org/2000/svg" xmlns:xlink="http://www.w3.org/1999/xlink" width="40" zoomAndPan="magnify" viewBox="0 0 30 30.000001" height="40" preserveAspectRatio="xMidYMid meet" version="1.2"><defs><clipPath id="f7022596b9"><path d="M 0.484375 0 L 29.515625 0 L 29.515625 29.03125 L 0.484375 29.03125 Z M 0.484375 0 "/></clipPath></defs><g id="a6e4d88cf3"><g clip-rule="nonzero" clip-path="url(#f7022596b9)"><path style=" stroke:none;fill-rule:nonzero;fill:#ffffff;fill-opacity:1;" d="M 0.484375 0 L 29.515625 0 L 29.515625 29.03125 L 0.484375 29.03125 Z M 0.484375 0 "/><path style=" stroke:none;fill-rule:nonzero;fill:#000099;fill-opacity:1;" d="M 28.777344 0 L 1.222656 0 C 1.019531 0 0.84375 0.0703125 0.699219 0.214844 C 0.554688 0.359375 0.484375 0.535156 0.484375 0.738281 L 0.484375 28.292969 C 0.484375 28.5 0.554688 28.671875 0.699219 28.816406 C 0.84375 28.960938 1.019531 29.03125 1.222656 29.03125 L 28.777344 29.03125 C 28.980469 29.03125 29.15625 28.960938 29.300781 28.816406 C 29.445312 28.671875 29.515625 28.5 29.515625 28.292969 L 29.515625 0.738281 C 29.515625 0.535156 29.445312 0.359375 29.300781 0.214844 C 29.15625 0.0703125 28.980469 0 28.777344 0 Z M 8.082031 22.910156 C 7.9375 22.765625 7.863281 22.59375 7.863281 22.390625 C 7.863281 22.183594 7.9375 22.011719 8.082031 21.867188 L 15.433594 14.515625 L 8.082031 7.164062 C 7.9375 7.019531 7.867188 6.847656 7.867188 6.644531 C 7.867188 6.441406 7.9375 6.265625 8.082031 6.121094 C 8.226562 5.980469 8.398438 5.90625 8.601562 5.90625 C 8.808594 5.90625 8.980469 5.976562 9.125 6.121094 L 16.996094 13.996094 C 17.144531 14.136719 17.214844 14.3125 17.214844 14.515625 C 17.214844 14.71875 17.144531 14.894531 16.996094 15.039062 L 9.125 22.910156 C 8.980469 23.054688 8.808594 23.128906 8.601562 23.128906 C 8.398438 23.128906 8.226562 23.054688 8.082031 22.910156 Z M 21.917969 15.039062 L 14.046875 22.910156 C 13.902344 23.054688 13.726562 23.128906 13.523438 23.128906 C 13.320312 23.128906 13.144531 23.054688 13 22.914062 C 12.855469 22.769531 12.785156 22.59375 12.785156 22.390625 C 12.785156 22.1875 12.859375 22.011719 13.003906 21.867188 L 20.355469 14.515625 L 13.003906 7.164062 C 12.863281 7.019531 12.792969 6.847656 12.792969 6.644531 C 12.796875 6.445312 12.867188 6.273438 13.011719 6.128906 C 13.152344 5.988281 13.324219 5.914062 13.527344 5.914062 C 13.726562 5.914062 13.902344 5.980469 14.046875 6.121094 L 21.917969 13.996094 C 22.0625 14.136719 22.136719 14.3125 22.136719 14.515625 C 22.136719 14.71875 22.0625 14.894531 21.917969 15.039062 Z M 21.917969 15.039062 "/></g></g></svg>